<svg width="40" height="40" viewBox="0 0 40 40" fill="none" xmlns="http://www.w3.org/2000/svg">
<circle cx="20" cy="20" r="20" transform="matrix(-1 0 0 1 40 0)" fill="#2C2E35"/>
<path d="M11.2194 20.031L17.9694 26.781C18.1101 26.9218 18.301 27.0008 18.5 27.0008C18.699 27.0008 18.8899 26.9218 19.0306 26.781C19.1714 26.6403 19.2504 26.4494 19.2504 26.2504C19.2504 26.0514 19.1714 25.8605 19.0306 25.7198L13.5603 20.2504H28.25C28.4489 20.2504 28.6397 20.1714 28.7803 20.0307C28.921 19.8901 29 19.6993 29 19.5004C29 19.3015 28.921 19.1107 28.7803 18.9701C28.6397 18.8294 28.4489 18.7504 28.25 18.7504H13.5603L19.0306 13.281C19.1714 13.1403 19.2504 12.9494 19.2504 12.7504C19.2504 12.5514 19.1714 12.3605 19.0306 12.2198C18.8899 12.0791 18.699 12 18.5 12C18.301 12 18.1101 12.0791 17.9694 12.2198L11.2194 18.9698C11.1496 19.0394 11.0943 19.1222 11.0566 19.2132C11.0188 19.3043 10.9994 19.4019 10.9994 19.5004C10.9994 19.599 11.0188 19.6966 11.0566 19.7876C11.0943 19.8787 11.1496 19.9614 11.2194 20.031Z" fill="white"/>
</svg>
