<svg width="48" height="48" viewBox="0 0 48 48" fill="none" xmlns="http://www.w3.org/2000/svg">
<circle cx="24" cy="24" r="24" fill="#2C2E35"/>
<path d="M35.7277 29.9958C35.0338 28.8006 34.0024 25.4187 34.0024 21.0017C34.0024 18.3491 32.9486 15.8051 31.0729 13.9294C29.1972 12.0538 26.6532 11 24.0006 11C21.348 11 18.804 12.0538 16.9283 13.9294C15.0526 15.8051 13.9989 18.3491 13.9989 21.0017C13.9989 25.42 12.9662 28.8006 12.2723 29.9958C12.0952 30.2996 12.0012 30.6448 12 30.9966C11.9988 31.3483 12.0904 31.6942 12.2655 31.9992C12.4406 32.3043 12.693 32.5578 12.9974 32.7342C13.3017 32.9105 13.6472 33.0035 13.9989 33.0038H19.101C19.3318 34.1329 19.9455 35.1477 20.8382 35.8765C21.731 36.6053 22.8481 37.0034 24.0006 37.0034C25.1531 37.0034 26.2702 36.6053 27.163 35.8765C28.0558 35.1477 28.6695 34.1329 28.9002 33.0038H34.0024C34.354 33.0033 34.6993 32.9102 35.0035 32.7337C35.3076 32.5572 35.5599 32.3037 35.7348 31.9987C35.9098 31.6937 36.0013 31.3479 36 30.9963C35.9987 30.6446 35.9048 30.2995 35.7277 29.9958ZM24.0006 35.0041C23.3803 35.004 22.7753 34.8115 22.2688 34.4533C21.7624 34.095 21.3794 33.5887 21.1726 33.0038H26.8286C26.6218 33.5887 26.2389 34.095 25.7324 34.4533C25.226 34.8115 24.621 35.004 24.0006 35.0041ZM13.9989 31.0035C14.9616 29.3482 15.9992 25.5125 15.9992 21.0017C15.9992 18.8796 16.8422 16.8444 18.3428 15.3439C19.8433 13.8433 21.8785 13.0003 24.0006 13.0003C26.1227 13.0003 28.1579 13.8433 29.6585 15.3439C31.159 16.8444 32.002 18.8796 32.002 21.0017C32.002 25.5088 33.0372 29.3444 34.0024 31.0035H13.9989Z" fill="white"/>
</svg>
