<svg width="20" height="21" viewBox="0 0 20 21" fill="none" xmlns="http://www.w3.org/2000/svg">
<path d="M17.4071 7.40911C17.0739 7.40734 16.7434 7.47022 16.4341 7.59427L13.6113 4.07065C13.8434 3.73645 13.9935 3.35233 14.0495 2.94936C14.1056 2.54639 14.066 2.13588 13.934 1.75105C13.8019 1.36622 13.5812 1.01786 13.2896 0.734169C12.9979 0.450474 12.6436 0.239405 12.2553 0.118034C11.867 -0.00333623 11.4555 -0.0315994 11.0543 0.0355309C10.653 0.102661 10.2731 0.2633 9.94547 0.504453C9.61779 0.745605 9.35148 1.0605 9.16807 1.42366C8.98466 1.78683 8.88931 2.18806 8.88973 2.59491C8.88969 2.68582 8.89432 2.77667 8.90361 2.8671L4.60139 4.65946C4.34223 4.34159 4.01135 4.08975 3.63593 3.92462C3.2605 3.7595 2.85126 3.68581 2.44182 3.70961C2.03238 3.73341 1.63444 3.85402 1.28068 4.06153C0.926915 4.26904 0.62744 4.55753 0.406857 4.90329C0.186274 5.24905 0.0508794 5.64222 0.0117971 6.05048C-0.0272852 6.45874 0.0310607 6.87045 0.182041 7.25178C0.333021 7.63311 0.572326 7.97317 0.880293 8.24403C1.18826 8.51489 1.5561 8.7088 1.95359 8.80985L2.12486 13.1037C1.73239 13.2377 1.37781 13.464 1.09087 13.7634C0.803933 14.0628 0.593023 14.4267 0.47585 14.8245C0.358677 15.2223 0.33866 15.6425 0.41748 16.0496C0.4963 16.4568 0.671656 16.8391 0.928825 17.1644C1.18599 17.4898 1.51747 17.7487 1.89542 17.9194C2.27337 18.0901 2.68676 18.1676 3.10088 18.1455C3.515 18.1234 3.91777 18.0022 4.27536 17.7921C4.63296 17.5821 4.93494 17.2893 5.15595 16.9384L9.63037 18.192C9.63665 18.6089 9.74343 19.0182 9.94163 19.3851C10.1398 19.7519 10.4236 20.0656 10.7689 20.2994C11.1142 20.5332 11.5107 20.6802 11.925 20.7281C12.3392 20.7759 12.7589 20.7231 13.1483 20.5741C13.5378 20.4252 13.8856 20.1845 14.1622 19.8724C14.4388 19.5604 14.636 19.1862 14.7372 18.7817C14.8383 18.3771 14.8404 17.9542 14.7432 17.5487C14.646 17.1432 14.4524 16.7671 14.1789 16.4524L16.698 12.4946C17.0545 12.5961 17.4287 12.6199 17.7953 12.5645C18.1618 12.5091 18.5122 12.3757 18.8228 12.1733C19.1334 11.9709 19.397 11.7043 19.5958 11.3914C19.7946 11.0785 19.924 10.7266 19.9752 10.3594C20.0264 9.99222 19.9982 9.61835 19.8926 9.26299C19.787 8.90762 19.6064 8.57904 19.363 8.29942C19.1196 8.01979 18.8191 7.79562 18.4817 7.64204C18.1443 7.48845 17.7779 7.40902 17.4071 7.40911ZM12.2226 15.5562H12.1402L10.6423 11.0633L14.9612 10.8577C15.0703 11.1637 15.2362 11.4464 15.45 11.691L12.9309 15.6488C12.7002 15.5854 12.4618 15.5542 12.2226 15.5562ZM3.60522 13.0445L3.43395 8.7506C3.78312 8.63032 4.10255 8.43683 4.37087 8.18308L8.30832 10.4643L4.46993 13.4472C4.20909 13.2606 3.91589 13.1241 3.60522 13.0445ZM11.6273 5.18717C11.9116 5.17165 12.1913 5.10908 12.455 5.00201L15.2778 8.52563C15.0977 8.78414 14.9666 9.07345 14.8908 9.37922L10.5793 9.58475L11.6273 5.18717ZM5.37999 14.6165L9.26005 11.5993L10.7358 16.0274C10.4548 16.2256 10.2156 16.4773 10.0322 16.7681L5.55682 15.5127C5.55139 15.2058 5.49152 14.9024 5.37999 14.6165ZM11.482 1.48395C11.7017 1.48395 11.9165 1.5491 12.0992 1.67118C12.2819 1.79325 12.4243 1.96676 12.5084 2.16977C12.5925 2.37277 12.6145 2.59615 12.5716 2.81165C12.5287 3.02716 12.4229 3.22512 12.2676 3.38049C12.1122 3.53586 11.9142 3.64167 11.6987 3.68453C11.4832 3.7274 11.2598 3.7054 11.0568 3.62131C10.8538 3.53723 10.6803 3.39483 10.5582 3.21213C10.4362 3.02944 10.371 2.81464 10.371 2.59491C10.371 2.30027 10.4881 2.01769 10.6964 1.80934C10.9048 1.60099 11.1873 1.48395 11.482 1.48395ZM9.47484 4.23359C9.67387 4.47617 9.91466 4.68122 10.1859 4.83907L9.13969 9.23202L5.11521 6.90176C5.16257 6.70405 5.18649 6.50145 5.1865 6.29814C5.18654 6.20723 5.1819 6.11638 5.17261 6.02595L9.47484 4.23359ZM1.48328 6.29814C1.48328 6.07841 1.54843 5.86362 1.67051 5.68092C1.79258 5.49822 1.96609 5.35582 2.1691 5.27174C2.3721 5.18765 2.59548 5.16565 2.81098 5.20852C3.02649 5.25139 3.22445 5.35719 3.37982 5.51257C3.53519 5.66794 3.641 5.86589 3.68387 6.0814C3.72673 6.29691 3.70473 6.52028 3.62064 6.72329C3.53656 6.92629 3.39416 7.0998 3.21147 7.22187C3.02877 7.34395 2.81397 7.40911 2.59424 7.40911C2.2996 7.40911 2.01702 7.29206 1.80867 7.08371C1.60033 6.87536 1.48328 6.59279 1.48328 6.29814ZM2.96457 16.6672C2.74484 16.6672 2.53004 16.602 2.34735 16.4799C2.16465 16.3579 2.02225 16.1844 1.93817 15.9813C1.85408 15.7783 1.83208 15.555 1.87495 15.3395C1.91781 15.124 2.02362 14.926 2.17899 14.7706C2.33437 14.6153 2.53232 14.5094 2.74783 14.4666C2.96333 14.4237 3.18671 14.4457 3.38972 14.5298C3.59272 14.6139 3.76623 14.7563 3.8883 14.939C4.01038 15.1217 4.07553 15.3365 4.07553 15.5562C4.07553 15.8508 3.95849 16.1334 3.75014 16.3418C3.54179 16.5501 3.25921 16.6672 2.96457 16.6672ZM12.2226 19.2594C12.0029 19.2594 11.7881 19.1943 11.6054 19.0722C11.4227 18.9501 11.2803 18.7766 11.1962 18.5736C11.1121 18.3706 11.0901 18.1472 11.133 17.9317C11.1759 17.7162 11.2817 17.5183 11.4371 17.3629C11.5924 17.2075 11.7904 17.1017 12.0059 17.0588C12.2214 17.016 12.4448 17.038 12.6478 17.1221C12.8508 17.2061 13.0243 17.3485 13.1464 17.5312C13.2684 17.7139 13.3336 17.9287 13.3336 18.1485C13.3336 18.4431 13.2165 18.7257 13.0082 18.934C12.7999 19.1424 12.5173 19.2594 12.2226 19.2594ZM17.4071 11.1123C17.1874 11.1123 16.9726 11.0472 16.7899 10.9251C16.6072 10.803 16.4648 10.6295 16.3807 10.4265C16.2967 10.2235 16.2747 10.0001 16.3175 9.78462C16.3604 9.56912 16.4662 9.37116 16.6216 9.21579C16.7769 9.06042 16.9749 8.95461 17.1904 8.91174C17.4059 8.86888 17.6293 8.89088 17.8323 8.97496C18.0353 9.05905 18.2088 9.20145 18.3309 9.38414C18.453 9.56684 18.5181 9.78163 18.5181 10.0014C18.5181 10.296 18.4011 10.5786 18.1927 10.7869C17.9844 10.9953 17.7018 11.1123 17.4071 11.1123Z" fill="white"/>
</svg>
