<svg width="42" height="43" viewBox="0 0 42 43" fill="none" xmlns="http://www.w3.org/2000/svg">
<path d="M29.1467 33.4981H12.8534C12.1254 33.4981 11.3107 32.9261 11.0681 32.2327L3.89205 12.1607C2.86939 9.28337 4.06539 8.39937 6.52672 10.1674L13.2867 15.0034C14.4134 15.7834 15.6961 15.3847 16.1814 14.1194L19.232 5.99004C20.2027 3.39004 21.8147 3.39004 22.7853 5.99004L25.836 14.1194C26.3213 15.3847 27.604 15.7834 28.7134 15.0034L35.0574 10.4794C37.7614 8.53804 39.0614 9.52604 37.952 12.6634L30.9493 32.2674C30.6893 32.9261 29.8747 33.4981 29.1467 33.4981Z" stroke="white" stroke-width="1.25" stroke-linecap="round" stroke-linejoin="round"/>
<path d="M16.667 24.8662H25.3337" stroke="white" stroke-width="1.25" stroke-linecap="round" stroke-linejoin="round"/>
</svg>
