<svg width="38" height="38" viewBox="0 0 38 38" fill="none" xmlns="http://www.w3.org/2000/svg">
<path fill-rule="evenodd" clip-rule="evenodd" d="M5.38379 9.79993C5.38379 7.43601 7.27023 5.60545 9.61232 4.43442C12.0232 3.22899 15.2733 2.5166 18.8005 2.5166C22.3276 2.5166 25.5778 3.22899 27.9887 4.43442C30.3307 5.60545 32.2171 7.43601 32.2171 9.79993V28.1999C32.2171 30.5639 30.3307 32.3944 27.9887 33.5654C25.5778 34.7709 22.3276 35.4833 18.8005 35.4833C15.2733 35.4833 12.0232 34.7709 9.61232 33.5654C7.27023 32.3944 5.38379 30.5639 5.38379 28.1999V9.79993ZM7.68379 9.79993C7.68379 8.77651 8.54333 7.5404 10.6409 6.4916C12.6697 5.47721 15.5529 4.8166 18.8005 4.8166C22.0481 4.8166 24.9312 5.47721 26.9599 6.4916C29.0575 7.5404 29.9171 8.77651 29.9171 9.79993C29.9171 10.8234 29.0575 12.0595 26.9599 13.1083C24.9312 14.1227 22.0481 14.7833 18.8005 14.7833C15.5529 14.7833 12.6697 14.1227 10.6409 13.1083C8.54333 12.0595 7.68379 10.8234 7.68379 9.79993ZM7.68379 28.1999C7.68379 29.2233 8.54333 30.4594 10.6409 31.5082C12.6697 32.5227 15.5529 33.1833 18.8005 33.1833C22.0481 33.1833 24.9312 32.5227 26.9599 31.5082C29.0575 30.4594 29.9171 29.2233 29.9171 28.1999V23.151C29.3395 23.6117 28.6842 24.0176 27.9887 24.3654C25.5778 25.5709 22.3276 26.2833 18.8005 26.2833C15.2733 26.2833 12.0232 25.5709 9.61232 24.3654C8.9168 24.0176 8.26147 23.6117 7.68379 23.151V28.1999ZM29.9171 13.951V18.9999C29.9171 20.0233 29.0575 21.2594 26.9599 22.3082C24.9312 23.3227 22.0481 23.9833 18.8005 23.9833C15.5529 23.9833 12.6697 23.3227 10.6409 22.3082C8.54333 21.2594 7.68379 20.0233 7.68379 18.9999V13.951C8.26147 14.4118 8.9168 14.8177 9.61232 15.1654C12.0232 16.3709 15.2733 17.0833 18.8005 17.0833C22.3276 17.0833 25.5778 16.3709 27.9887 15.1654C28.6842 14.8177 29.3395 14.4118 29.9171 13.951Z" fill="white"/>
</svg>
